# xmcd CD database file
#
# Track frame offsets:
#	150
#	13244
#	33888
#	54794
#	76073
#	96257
#	115741
#	135092
#	157031
#	188520
#	213867
#	235893
#	252043
#	269698
#	285549
#	301478
#
# Disc length: 4169 seconds
#
# Revision: 0
# Processed by: cddbd v1.5.2PL0 Copyright (c) Steve Scherf et al.
# Submitted via: CDex 1.51
#
DISCID=c7104710
DTITLE=Relaxing Music - Shiatsu
DYEAR=1900
DGENRE=New Age
TTITLE0=The tao of love
TTITLE1=The will of the wind
TTITLE2=Madame Curie
TTITLE3=Camilla
TTITLE4=Montain dust
TTITLE5=Eric's theme
TTITLE6=I hear you now
TTITLE7=China
TTITLE8=Himalaya
TTITLE9=Alpha
TTITLE10=Conqueste of paradise
TTITLE11=Porta del paradiso
TTITLE12=Monaci tibetani
TTITLE13=Humajun
TTITLE14=Balafon
TTITLE15=Didjiercussion
EXTD=
EXTT0=
EXTT1=
EXTT2=
EXTT3=
EXTT4=
EXTT5=
EXTT6=
EXTT7=
EXTT8=
EXTT9=
EXTT10=
EXTT11=
EXTT12=
EXTT13=
EXTT14=
EXTT15=
PLAYORDER=
